<?xml version="1.0" encoding="utf-8"?>
<svg viewBox="0 0 500 500" xmlns="http://www.w3.org/2000/svg">
  <g style="" transform="matrix(0.949384, 0, 0, 0.949384, -224.692184, 15.304037)">
    <svg viewBox="0 0 312 247" data-background-color="#0080ff" preserveAspectRatio="xMidYMid meet" height="791" width="1000" xmlns="http://www.w3.org/2000/svg" style="" transform="matrix(3.2024291497975708, 0, 0, 3.2024291497975708, 0.42105263157895934, 0)">
      <g id="tight-bounds" transform="matrix(1,0,0,1,-0.23272394711244715,-0.1000013189058393)">
        <svg viewBox="0 0 312.4654478942249 247.2" height="247.2" width="312.4654478942249">
          <g>
            <svg viewBox="0 0 395.52 312.9067378774556" height="247.2" width="312.4654478942249" style="" transform="matrix(0.6102994892360413, 0, 0, 0.631736795983719, 0.0042538885033805325, 0)">
              <g transform="matrix(1,0,0,1,0,232.81804078201992)">
                <svg viewBox="0 0 395.52 80.08869709543569" height="80.08869709543569" width="395.52">
                  <g>
                    <svg viewBox="0 0 395.52 80.08869709543569" height="80.08869709543569" width="395.52">
                      <g>
                        <svg viewBox="0 0 395.52 80.08869709543569" height="80.08869709543569" width="395.52">
                          <g transform="matrix(1,0,0,1,0,0)">
                            <svg width="395.52" viewBox="1.75 -35 180.74000549316406 36.599998474121094" height="80.08869709543569" data-palette-color="#ffffff"/>
                          </g>
                        </svg>
                      </g>
                    </svg>
                  </g>
                </svg>
              </g>
              <g transform="matrix(1,0,0,1,100.25799886449211,0)">
                <svg viewBox="0 0 195.00400227101576 195.00400227101576" height="195.00400227101576" width="195.00400227101576">
                  <g>
                    <svg/>
                  </g>
                  <g id="icon-0">
                    <svg viewBox="0 0 195.00400227101576 195.00400227101576" height="195.00400227101576" width="195.00400227101576">
                      <g>
                        <path d="M0 97.502c0-53.849 43.653-97.502 97.502-97.502 53.849 0 97.502 43.653 97.502 97.502 0 53.849-43.653 97.502-97.502 97.502-53.849 0-97.502-43.653-97.502-97.502zM97.502 187.782c49.86 0 90.28-40.42 90.28-90.28 0-49.86-40.42-90.28-90.28-90.28-49.86 0-90.28 40.42-90.28 90.28 0 49.86 40.42 90.28 90.28 90.28z" data-fill-palette-color="accent" fill="#ffffff" stroke="transparent"/>
                        <ellipse rx="96.5269811241528" ry="96.5269811241528" cx="97.50200113550788" cy="97.50200113550788" fill="#ffffff" stroke="transparent" stroke-width="0" fill-opacity="1" data-fill-palette-color="accent"/>
                      </g>
                      <g transform="matrix(1,0,0,1,41.077772537237706,47.7918649172768)">
                        <svg viewBox="0 0 112.84845719654035 99.42027243646217" height="99.42027243646217" width="112.84845719654035">
                          <g>
                            <svg xmlns="http://www.w3.org/2000/svg" version="1.1" x="0" y="0" viewBox="6.300000190734863 11.5 87.39999389648438 77" style="enable-background:new 0 0 100 100;" height="99.42027243646217" width="112.84845719654035" class="icon-x-0" data-fill-palette-color="quaternary" id="x-0">
                              <path d="M72.3 12.3L72.3 12.3 72.3 12.3l-0.4-0.8H28.2L6.3 50l21.8 38.5h43.7L93.7 50 72.3 12.3zM33.3 25.3L9.9 47.7l18.6-32.8L33.3 25.3zM70.7 14.8l6.4 35.7L36.9 25.8 70.7 14.8zM35.5 27.3l41 25.2-41 23.3V27.3zM77 54.5l-7.2 30.8-32.6-8.1L77 54.5zM33.5 75L9.9 50.5l23.6-22.7V75zM33.2 77.6l-4.6 7.7L11.5 55.1 33.2 77.6zM35 78.6l31.4 7.9H30.2L35 78.6zM79.3 53.3l11.6-2.5L72.1 84 79.3 53.3zM90.7 48.9l-11.4 2.5-5.9-33.1L90.7 48.9zM35 24.3l-5-10.8h38.2L35 24.3z" fill="#0080ff" data-fill-palette-color="quaternary"/>
                            </svg>
                          </g>
                        </svg>
                      </g>
                    </svg>
                  </g>
                </svg>
              </g>
              <g/>
            </svg>
          </g>
        </svg>
        <rect width="312.4654478942249" height="247.2" fill="none" stroke="none" visibility="hidden"/>
      </g>
    </svg>
  </g>
</svg>